<?xml version="1.0" encoding="UTF-8"?>
<!DOCTYPE svg PUBLIC "-//W3C//DTD SVG 1.1//EN" "http://www.w3.org/Graphics/SVG/1.1/DTD/svg11.dtd">
<!-- Creator: CorelDRAW X6 -->
<svg xmlns="http://www.w3.org/2000/svg" xml:space="preserve" width="100%" height="100%" version="1.1" style="shape-rendering:geometricPrecision; text-rendering:geometricPrecision; image-rendering:optimizeQuality; fill-rule:evenodd; clip-rule:evenodd"
viewBox="0 0 500 500"
 xmlns:xlink="http://www.w3.org/1999/xlink">
 <defs>
  <style type="text/css">
   <![CDATA[
    .str7 {stroke:#F2F2F2;stroke-width:0.762}
    .str8 {stroke:#F8F8F8;stroke-width:0.762}
    .str5 {stroke:#303030;stroke-width:2}
    .str6 {stroke:#B9E3FF;stroke-width:2}
    .str4 {stroke:#8A8A8A;stroke-width:10}
    .str3 {stroke:#686868;stroke-width:15}
    .str2 {stroke:#484848;stroke-width:20}
    .str1 {stroke:#383838;stroke-width:25}
    .fil3 {fill:none}
    .fil4 {fill:url(#id0)}
    .fil7 {fill:url(#id1)}
    .fil2 {fill:url(#id2)}
    .fil1 {fill:url(#id3)}
    .fil5 {fill:url(#id4)}
    .fil21 {fill:url(#id5)}
    .fil15 {fill:url(#id6)}
    .fil6 {fill:url(#id7)}
    .fil16 {fill:url(#id8)}
    .fil10 {fill:url(#id9)}
    .fil17 {fill:url(#id10)}
    .fil11 {fill:url(#id11)}
    .fil18 {fill:url(#id12)}
    .fil12 {fill:url(#id13)}
    .fil19 {fill:url(#id14)}
    .fil13 {fill:url(#id15)}
    .fil22 {fill:url(#id16)}
    .fil20 {fill:url(#id17)}
    .fil14 {fill:url(#id18)}
    .fil8 {fill:url(#id19)}
    .fil9 {fill:url(#id20)}
   ]]>
  </style>
  <linearGradient id="id0" gradientUnits="userSpaceOnUse" x1="460.368" y1="395.117" x2="42.136" y2="201.303">
   <stop offset="0" style="stop-color:#0081D8"/>
   <stop offset="1" style="stop-color:#006AB1"/>
  </linearGradient>
  <linearGradient id="id1" gradientUnits="userSpaceOnUse" x1="216.652" y1="329.346" x2="216.652" y2="378.348">
   <stop offset="0" style="stop-color:#E5E5E5"/>
   <stop offset="0.788235" style="stop-color:#B4B4B4"/>
   <stop offset="1" style="stop-color:#6F6F6F"/>
  </linearGradient>
  <linearGradient id="id2" gradientUnits="userSpaceOnUse" x1="26.011" y1="203.453" x2="476.493" y2="392.965">
   <stop offset="0" style="stop-color:#2EACFF"/>
   <stop offset="1" style="stop-color:#008EED"/>
  </linearGradient>
  <linearGradient id="id3" gradientUnits="userSpaceOnUse" x1="50.905" y1="170.97" x2="451.599" y2="425.449">
   <stop offset="0" style="stop-color:#74C7FF"/>
   <stop offset="1" style="stop-color:#0062A4"/>
  </linearGradient>
  <linearGradient id="id4" gradientUnits="objectBoundingBox" x1="50%" y1="4.9997%" x2="50%" y2="94.9983%">
   <stop offset="0" style="stop-color:#D8D8D8"/>
   <stop offset="0.788235" style="stop-color:#B1B1B1"/>
   <stop offset="1" style="stop-color:#606060"/>
  </linearGradient>
  <linearGradient id="id5" gradientUnits="userSpaceOnUse" x1="63.256" y1="333.6" x2="99.546" y2="369.89">
   <stop offset="0" style="stop-color:#CBCBCB"/>
   <stop offset="1" style="stop-color:#F2F2F2"/>
  </linearGradient>
  <linearGradient id="id6" gradientUnits="userSpaceOnUse" xlink:href="#id5" x1="63.256" y1="277.962" x2="99.546" y2="314.252">
  </linearGradient>
  <linearGradient id="id7" gradientUnits="userSpaceOnUse" xlink:href="#id5" x1="63.256" y1="217.967" x2="99.546" y2="254.257">
  </linearGradient>
  <linearGradient id="id8" gradientUnits="userSpaceOnUse" xlink:href="#id5" x1="131.454" y1="277.962" x2="167.744" y2="314.252">
  </linearGradient>
  <linearGradient id="id9" gradientUnits="userSpaceOnUse" xlink:href="#id5" x1="131.454" y1="217.967" x2="167.744" y2="254.257">
  </linearGradient>
  <linearGradient id="id10" gradientUnits="userSpaceOnUse" xlink:href="#id5" x1="199.652" y1="277.962" x2="235.942" y2="314.252">
  </linearGradient>
  <linearGradient id="id11" gradientUnits="userSpaceOnUse" xlink:href="#id5" x1="199.652" y1="217.967" x2="235.942" y2="254.257">
  </linearGradient>
  <linearGradient id="id12" gradientUnits="userSpaceOnUse" xlink:href="#id5" x1="267.85" y1="277.962" x2="304.14" y2="314.252">
  </linearGradient>
  <linearGradient id="id13" gradientUnits="userSpaceOnUse" xlink:href="#id5" x1="267.85" y1="217.967" x2="304.14" y2="254.257">
  </linearGradient>
  <linearGradient id="id14" gradientUnits="userSpaceOnUse" xlink:href="#id5" x1="336.048" y1="277.962" x2="372.338" y2="314.252">
  </linearGradient>
  <linearGradient id="id15" gradientUnits="userSpaceOnUse" xlink:href="#id5" x1="336.048" y1="217.967" x2="372.338" y2="254.257">
  </linearGradient>
  <linearGradient id="id16" gradientUnits="userSpaceOnUse" xlink:href="#id5" x1="404.25" y1="333.6" x2="440.54" y2="369.89">
  </linearGradient>
  <linearGradient id="id17" gradientUnits="userSpaceOnUse" xlink:href="#id5" x1="404.25" y1="277.962" x2="440.54" y2="314.252">
  </linearGradient>
  <linearGradient id="id18" gradientUnits="userSpaceOnUse" xlink:href="#id5" x1="404.25" y1="217.967" x2="440.54" y2="254.257">
  </linearGradient>
  <linearGradient id="id19" gradientUnits="userSpaceOnUse" x1="267.85" y1="333.6" x2="304.14" y2="369.89">
   <stop offset="0" style="stop-color:#DBDBDB"/>
   <stop offset="1" style="stop-color:#FEFEFE"/>
  </linearGradient>
  <linearGradient id="id20" gradientUnits="userSpaceOnUse" xlink:href="#id5" x1="180.099" y1="330.735" x2="321.403" y2="372.959">
  </linearGradient>
 </defs>
 <g id="Layer_x0020_1">
  <metadata id="CorelCorpID_0Corel-Layer"/>
  <rect class="fil1" x="21" y="183" width="460" height="230" rx="25" ry="27"/>
  <rect class="fil2" x="26" y="188" width="450" height="220" rx="20" ry="22"/>
  <path class="fil3 str1" d="M86 183c0,-27 22,-49 50,-49l66 0c27,0 49,-22 49,-50"/>
  <path class="fil4" d="M46 203l410 0c3,0 5,2 5,5l0 180c0,3 -2,5 -5,5l-410 0c-2,0 -5,-2 -5,-5l0 -180c0,-3 3,-5 5,-5z"/>
  <path class="fil3 str2" d="M86 183c0,-27 22,-49 50,-49l66 0c27,0 49,-22 49,-50"/>
  <path class="fil3 str3" d="M86 183c0,-27 22,-49 50,-49l66 0c27,0 49,-22 49,-50"/>
  <path class="fil3 str4" d="M86 183c0,-27 22,-49 50,-49l66 0c27,0 49,-22 49,-50"/>
  <path class="fil3 str5" d="M41 388c0,3 3,5 5,5l410 0c3,0 5,-2 5,-5l0 -180"/>
  <path class="fil3 str6" d="M461 208c0,-3 -2,-5 -5,-5l-410 0c-2,0 -5,2 -5,5l0 180"/>
  <g id="_1064246512">
   <rect class="fil5" x="55" y="213" width="49.998" height="50.003" rx="7" ry="7"/>
   <path class="fil6 str7" d="M63 216c6,0 12,0 17,0 6,0 12,0 17,0 2,0 3,2 3,3 0,6 0,12 0,17 0,6 0,12 0,17 0,2 -1,3 -3,3 -5,0 -11,0 -17,0 -5,0 -11,0 -17,0 -1,0 -3,-1 -3,-3 0,-5 0,-11 0,-17 0,-5 0,-11 0,-17 0,-1 2,-3 3,-3z"/>
  </g>
  <rect class="fil5" x="123" y="329" width="254.592" height="50.003" rx="36" ry="7"/>
  <rect class="fil7" x="192" y="329" width="49.998" height="50.003" rx="7" ry="7"/>
  <path class="fil8 str8" d="M268 332c6,0 11,0 17,0 6,0 11,0 17,0 1,0 3,1 3,3 0,6 0,11 0,17 0,6 0,11 0,17 0,2 -2,3 -3,3 -6,0 -11,0 -17,0 -6,0 -11,0 -17,0 -2,0 -3,-1 -3,-3 0,-6 0,-11 0,-17 0,-6 0,-11 0,-17 0,-2 1,-3 3,-3z"/>
  <path class="fil9 str7" d="M370 332c2,0 3,1 3,3 0,11 0,23 0,34 0,2 -1,3 -3,3 -79,0 -159,0 -239,0 -1,0 -3,-1 -3,-3 0,-11 0,-23 0,-34 0,-2 2,-3 3,-3 80,0 160,0 239,0z"/>
  <g id="_1064242000">
   <rect class="fil5" x="123" y="213" width="49.998" height="50.003" rx="7" ry="7"/>
   <path class="fil10 str7" d="M131 216c6,0 12,0 17,0 6,0 12,0 17,0 2,0 3,2 3,3 0,6 0,12 0,17 0,6 0,12 0,17 0,2 -1,3 -3,3 -5,0 -11,0 -17,0 -5,0 -11,0 -17,0 -1,0 -3,-1 -3,-3 0,-5 0,-11 0,-17 0,-5 0,-11 0,-17 0,-1 2,-3 3,-3z"/>
  </g>
  <g id="_1064244656">
   <rect class="fil5" x="192" y="213" width="49.998" height="50.003" rx="7" ry="7"/>
   <path class="fil11 str7" d="M200 216c5,0 11,0 17,0 5,0 11,0 17,0 1,0 3,2 3,3 0,6 0,12 0,17 0,6 0,12 0,17 0,2 -2,3 -3,3 -6,0 -12,0 -17,0 -6,0 -12,0 -17,0 -2,0 -3,-1 -3,-3 0,-5 0,-11 0,-17 0,-5 0,-11 0,-17 0,-1 1,-3 3,-3z"/>
  </g>
  <g id="_1064241872">
   <rect class="fil5" x="260" y="213" width="49.998" height="50.003" rx="7" ry="7"/>
   <path class="fil12 str7" d="M268 216c6,0 11,0 17,0 6,0 11,0 17,0 1,0 3,2 3,3 0,6 0,12 0,17 0,6 0,12 0,17 0,2 -2,3 -3,3 -6,0 -11,0 -17,0 -6,0 -11,0 -17,0 -2,0 -3,-1 -3,-3 0,-5 0,-11 0,-17 0,-5 0,-11 0,-17 0,-1 1,-3 3,-3z"/>
  </g>
  <g id="_1064242576">
   <rect class="fil5" x="328" y="213" width="49.998" height="50.003" rx="7" ry="7"/>
   <path class="fil13 str7" d="M336 216c6,0 11,0 17,0 6,0 11,0 17,0 2,0 3,2 3,3 0,6 0,12 0,17 0,6 0,12 0,17 0,2 -1,3 -3,3 -6,0 -11,0 -17,0 -6,0 -11,0 -17,0 -2,0 -3,-1 -3,-3 0,-5 0,-11 0,-17 0,-5 0,-11 0,-17 0,-1 1,-3 3,-3z"/>
  </g>
  <g id="_1064242864">
   <rect class="fil5" x="396" y="213" width="49.998" height="50.003" rx="7" ry="7"/>
   <path class="fil14 str7" d="M404 216c6,0 12,0 17,0 6,0 12,0 17,0 2,0 3,2 3,3 0,6 0,12 0,17 0,6 0,12 0,17 0,2 -1,3 -3,3 -5,0 -11,0 -17,0 -5,0 -11,0 -17,0 -1,0 -3,-1 -3,-3 0,-5 0,-11 0,-17 0,-5 0,-11 0,-17 0,-1 2,-3 3,-3z"/>
  </g>
  <g id="_1064240464">
   <rect class="fil5" x="55" y="273" width="49.998" height="50.003" rx="7" ry="7"/>
   <path class="fil15 str7" d="M63 276c6,0 12,0 17,0 6,0 12,0 17,0 2,0 3,2 3,3 0,6 0,12 0,17 0,6 0,12 0,17 0,2 -1,3 -3,3 -5,0 -11,0 -17,0 -5,0 -11,0 -17,0 -1,0 -3,-1 -3,-3 0,-5 0,-11 0,-17 0,-5 0,-11 0,-17 0,-1 2,-3 3,-3z"/>
  </g>
  <g id="_1064238768">
   <rect class="fil5" x="123" y="273" width="49.998" height="50.003" rx="7" ry="7"/>
   <path class="fil16 str7" d="M131 276c6,0 12,0 17,0 6,0 12,0 17,0 2,0 3,2 3,3 0,6 0,12 0,17 0,6 0,12 0,17 0,2 -1,3 -3,3 -5,0 -11,0 -17,0 -5,0 -11,0 -17,0 -1,0 -3,-1 -3,-3 0,-5 0,-11 0,-17 0,-5 0,-11 0,-17 0,-1 2,-3 3,-3z"/>
  </g>
  <g id="_1064239792">
   <rect class="fil5" x="192" y="273" width="49.998" height="50.003" rx="7" ry="7"/>
   <path class="fil17 str7" d="M200 276c5,0 11,0 17,0 5,0 11,0 17,0 1,0 3,2 3,3 0,6 0,12 0,17 0,6 0,12 0,17 0,2 -2,3 -3,3 -6,0 -12,0 -17,0 -6,0 -12,0 -17,0 -2,0 -3,-1 -3,-3 0,-5 0,-11 0,-17 0,-5 0,-11 0,-17 0,-1 1,-3 3,-3z"/>
  </g>
  <g id="_1064238288">
   <rect class="fil5" x="260" y="273" width="49.998" height="50.003" rx="7" ry="7"/>
   <path class="fil18 str7" d="M268 276c6,0 11,0 17,0 6,0 11,0 17,0 1,0 3,2 3,3 0,6 0,12 0,17 0,6 0,12 0,17 0,2 -2,3 -3,3 -6,0 -11,0 -17,0 -6,0 -11,0 -17,0 -2,0 -3,-1 -3,-3 0,-5 0,-11 0,-17 0,-5 0,-11 0,-17 0,-1 1,-3 3,-3z"/>
  </g>
  <g id="_1064251152">
   <rect class="fil5" x="328" y="273" width="49.998" height="50.003" rx="7" ry="7"/>
   <path class="fil19 str7" d="M336 276c6,0 11,0 17,0 6,0 11,0 17,0 2,0 3,2 3,3 0,6 0,12 0,17 0,6 0,12 0,17 0,2 -1,3 -3,3 -6,0 -11,0 -17,0 -6,0 -11,0 -17,0 -2,0 -3,-1 -3,-3 0,-5 0,-11 0,-17 0,-5 0,-11 0,-17 0,-1 1,-3 3,-3z"/>
  </g>
  <g id="_1064236720">
   <rect class="fil5" x="396" y="273" width="49.998" height="50.003" rx="7" ry="7"/>
   <path class="fil20 str7" d="M404 276c6,0 12,0 17,0 6,0 12,0 17,0 2,0 3,2 3,3 0,6 0,12 0,17 0,6 0,12 0,17 0,2 -1,3 -3,3 -5,0 -11,0 -17,0 -5,0 -11,0 -17,0 -1,0 -3,-1 -3,-3 0,-5 0,-11 0,-17 0,-5 0,-11 0,-17 0,-1 2,-3 3,-3z"/>
  </g>
  <g id="_1064237552">
   <rect class="fil5" x="55" y="329" width="49.998" height="50.003" rx="7" ry="7"/>
   <path class="fil21 str7" d="M63 332c6,0 12,0 17,0 6,0 12,0 17,0 2,0 3,1 3,3 0,6 0,11 0,17 0,6 0,11 0,17 0,2 -1,3 -3,3 -5,0 -11,0 -17,0 -5,0 -11,0 -17,0 -1,0 -3,-1 -3,-3 0,-6 0,-11 0,-17 0,-6 0,-11 0,-17 0,-2 2,-3 3,-3z"/>
  </g>
  <g id="_1064236432">
   <rect class="fil5" x="396" y="329" width="49.998" height="50.003" rx="7" ry="7"/>
   <path class="fil22 str7" d="M404 332c6,0 12,0 17,0 6,0 12,0 17,0 2,0 3,1 3,3 0,6 0,11 0,17 0,6 0,11 0,17 0,2 -1,3 -3,3 -5,0 -11,0 -17,0 -5,0 -11,0 -17,0 -1,0 -3,-1 -3,-3 0,-6 0,-11 0,-17 0,-6 0,-11 0,-17 0,-2 2,-3 3,-3z"/>
  </g>
 </g>
</svg>
